HIERARCHY
ROOT Hips
{
	OFFSET -0.001795 -0.223333 0.028219
	CHANNELS 6 Xposition Yposition Zposition Zrotation Yrotation Xrotation 
	JOINT LeftUpLeg
	{
		OFFSET 0.069520 -0.091406 -0.006815
		CHANNELS 3 Zrotation Yrotation Xrotation
		JOINT LeftLeg
		{
			OFFSET 0.034277 -0.375199 -0.004496
			CHANNELS 3 Zrotation Yrotation Xrotation
			JOINT LeftFoot
			{
				OFFSET -0.013596 -0.397961 -0.043693
				CHANNELS 3 Zrotation Yrotation Xrotation
				JOINT LeftToe
				{
					OFFSET 0.026358 -0.055791 0.119288
					CHANNELS 3 Zrotation Yrotation Xrotation
					End Site
					{
						OFFSET 0.000000 0.000000 0.000000
					}
				}
			}
		}
	}
	JOINT RightUpLeg
	{
		OFFSET -0.067670 -0.090522 -0.004320
		CHANNELS 3 Zrotation Yrotation Xrotation
		JOINT RightLeg
		{
			OFFSET -0.038290 -0.382569 -0.008850
			CHANNELS 3 Zrotation Yrotation Xrotation
			JOINT RightFoot
			{
				OFFSET 0.015774 -0.398415 -0.042312
				CHANNELS 3 Zrotation Yrotation Xrotation
				JOINT RightToe
				{
					OFFSET -0.025372 -0.048144 0.123348
					CHANNELS 3 Zrotation Yrotation Xrotation
					End Site
					{
						OFFSET 0.000000 0.000000 0.000000
					}
				}
			}
		}
	}
	JOINT Spine
	{
		OFFSET -0.002533 0.108963 -0.026696
		CHANNELS 3 Zrotation Yrotation Xrotation
		JOINT Spine1
		{
			OFFSET 0.005487 0.135180 0.001092
			CHANNELS 3 Zrotation Yrotation Xrotation
			JOINT Spine2
			{
				OFFSET 0.001457 0.052922 0.025425
				CHANNELS 3 Zrotation Yrotation Xrotation
				JOINT Neck
				{
					OFFSET -0.002778 0.213870 -0.042857
					CHANNELS 3 Zrotation Yrotation Xrotation
					JOINT Head
					{
						OFFSET 0.005152 0.064970 0.051349
						CHANNELS 3 Zrotation Yrotation Xrotation
						End Site
						{
							OFFSET 0.000000 0.000000 0.000000
						}
					}
				}
				JOINT LeftShoulder
				{
					OFFSET 0.078845 0.121749 -0.034090
					CHANNELS 3 Zrotation Yrotation Xrotation
					JOINT LeftArm
					{
						OFFSET 0.090977 0.030469 -0.008868
						CHANNELS 3 Zrotation Yrotation Xrotation
						JOINT LeftForeArm
						{
							OFFSET 0.259612 -0.012772 -0.027456
							CHANNELS 3 Zrotation Yrotation Xrotation
							JOINT LeftHand
							{
								OFFSET 0.249234 0.008986 -0.001171
								CHANNELS 3 Zrotation Yrotation Xrotation
								End Site
								{
									OFFSET 0.000000 0.000000 0.000000
								}
							}
						}
					}
				}
				JOINT RightShoulder
				{
					OFFSET -0.081759 0.118833 -0.038615
					CHANNELS 3 Zrotation Yrotation Xrotation
					JOINT RightArm
					{
						OFFSET -0.096012 0.032551 -0.009143
						CHANNELS 3 Zrotation Yrotation Xrotation
						JOINT RightForeArm
						{
							OFFSET -0.253742 -0.013329 -0.021401
							CHANNELS 3 Zrotation Yrotation Xrotation
							JOINT RightHand
							{
								OFFSET -0.255298 0.007772 -0.005559
								CHANNELS 3 Zrotation Yrotation Xrotation
								End Site
								{
									OFFSET 0.000000 0.000000 0.000000
								}
							}
						}
					}
				}
			}
		}
	}
}
MOTION
Frames: 16
Frame Time: 0.050000
0.000000 0.955028 0.000000 -0.801865 -6.431816 4.094137 -2.125684 -0.385494 -3.676818 -2.248069 0.241740 4.240156 3.209399 8.153639 6.276587 0.000000 0.000000 0.000000 3.021058 0.279247 -3.317892 0.565722 0.062462 2.938401 -0.219051 -3.657796 5.722806 0.000000 0.000000 0.000000 5.240174 -0.577127 5.588395 -5.100232 1.687026 -28.123335 -0.923549 7.269722 32.226770 9.918246 -3.227006 -29.664894 0.000000 0.000000 0.000000 -14.150469 -0.255055 -0.966166 -60.403493 -6.684156 -6.969387 -2.901990 -26.461337 2.132454 0.000000 0.000000 0.000000 21.482929 -9.827196 -6.130661 63.010643 3.301288 -7.454595 5.929584 26.849868 3.032178 0.000000 0.000000 0.000000 
0.000601 0.953698 0.000718 -1.159929 -6.386277 4.711410 -1.409072 -0.415208 -4.125290 -2.966521 0.357419 4.384033 3.681742 8.774031 4.793757 0.000000 0.000000 0.000000 3.186545 0.333352 -3.791110 0.355460 0.087147 2.941584 -0.594118 -4.077453 4.879817 0.000000 0.000000 0.000000 5.713788 -0.537776 4.633959 -5.538795 1.776787 -27.593461 -0.962805 7.191937 32.366257 10.003886 -3.209410 -30.144354 0.000000 0.000000 0.000000 -14.154133 0.634804 -1.392011 -60.580918 -6.950984 -6.865066 -2.479961 -27.330286 2.140157 0.000000 0.000000 0.000000 21.816483 -10.545178 -6.642385 63.957369 2.889192 -7.749569 5.465720 28.191499 3.142546 0.000000 0.000000 0.000000 
0.001173 0.953572 0.001304 -0.876577 -6.088630 4.757846 -1.327801 -0.475227 -4.746918 -3.039147 0.368632 5.433715 3.368088 8.172818 4.719666 0.000000 0.000000 0.000000 2.858198 0.374705 -4.087106 0.345143 0.114554 3.570610 -0.628355 -3.977765 4.546454 0.000000 0.000000 0.000000 6.050315 -0.532320 4.344458 -6.630230 2.010067 -27.667750 -0.642545 6.203825 32.649904 9.383494 -3.107791 -29.568315 0.000000 0.000000 0.000000 -14.646453 0.477419 -1.193808 -59.745227 -7.478810 -6.526202 -1.866040 -26.564774 1.966207 0.000000 0.000000 0.000000 21.447434 -10.602867 -6.830916 63.566352 3.009633 -7.681837 5.781443 28.135678 3.151678 0.000000 0.000000 0.000000 
0.001639 0.954002 0.002027 -0.795468 -6.485575 4.630592 -1.856960 -0.500488 -4.834126 -2.816041 0.337663 6.233900 3.317479 7.990804 4.357404 0.000000 0.000000 0.000000 2.852296 0.378036 -4.127560 0.570264 0.091251 3.639427 -0.720254 -4.193052 4.520468 0.000000 0.000000 0.000000 6.002590 -0.537129 4.473031 -6.422004 1.949767 -28.662700 -0.768646 7.073158 33.987801 9.641867 -3.168111 -29.787802 0.000000 0.000000 0.000000 -14.666459 0.569924 -1.315881 -60.016454 -7.597380 -6.659376 -1.076990 -27.810334 1.896236 0.000000 0.000000 0.000000 22.236940 -11.777414 -7.486718 62.912603 2.943300 -7.831126 6.960659 29.495607 3.738377 0.000000 0.000000 0.000000 
0.002058 0.954743 0.002672 -0.798128 -6.193181 4.439165 -1.927477 -0.514222 -4.948985 -2.513369 0.279263 6.496247 3.414410 8.294483 4.921282 0.000000 0.000000 0.000000 2.844235 0.366654 -4.009160 0.360933 0.117549 3.678850 -0.833331 -4.353916 4.363126 0.000000 0.000000 0.000000 5.783677 -0.547868 4.765726 -5.965344 1.867807 -28.003639 -0.968711 6.960223 33.163038 9.557041 -3.166256 -29.227239 0.000000 0.000000 0.000000 -15.134369 0.645780 -1.446038 -59.604194 -7.814804 -6.418930 -0.698910 -27.772185 1.773047 0.000000 0.000000 0.000000 21.662470 -11.897573 -7.450553 63.064653 2.995584 -7.708723 6.526953 29.873637 3.681948 0.000000 0.000000 0.000000 
0.002474 0.955279 0.003116 -0.739373 -6.034046 4.302644 -2.027582 -0.550844 -5.267108 -2.680474 0.308919 7.299117 3.493968 8.364790 4.443899 0.000000 0.000000 0.000000 2.927029 0.359311 -3.940256 0.182074 0.147938 3.874511 -0.707960 -3.882254 3.981683 0.000000 0.000000 0.000000 5.695386 -0.563465 5.025755 -6.042587 1.881875 -28.272611 -1.065353 6.636364 33.354063 9.527997 -3.241189 -28.944999 0.000000 0.000000 0.000000 -15.267920 0.867402 -1.521814 -59.318382 -7.727947 -6.461709 -0.223699 -28.527583 1.735528 0.000000 0.000000 0.000000 21.588903 -11.998948 -7.563132 62.606561 2.692678 -7.841722 6.493843 30.866607 3.803810 0.000000 0.000000 0.000000 
0.002907 0.955639 0.003266 -0.776532 -6.069912 4.117450 -2.048768 -0.565781 -5.394635 -2.619630 0.298636 7.549908 3.693243 8.844765 5.006032 0.000000 0.000000 0.000000 3.051560 0.355202 -3.903016 -0.050492 0.185196 4.040896 -0.639990 -3.750166 4.021392 0.000000 0.000000 0.000000 5.685623 -0.593983 5.427865 -5.837386 1.841780 -28.180152 -1.290673 6.506181 33.081922 9.556285 -3.282553 -28.907862 0.000000 0.000000 0.000000 -15.672960 0.937384 -1.572026 -59.046507 -7.432030 -6.555513 0.042617 -28.823677 1.694506 0.000000 0.000000 0.000000 21.821553 -12.084196 -7.707970 62.110061 2.640893 -7.804321 6.424998 31.483609 3.855469 0.000000 0.000000 0.000000 
0.003354 0.955825 0.003244 -0.830798 -6.035827 3.982164 -2.001669 -0.611545 -5.843571 -2.805291 0.338766 8.663860 4.035866 9.428957 4.617915 0.000000 0.000000 0.000000 3.244739 0.382027 -4.107333 -0.197345 0.220058 4.371268 -0.612708 -3.536083 3.711795 0.000000 0.000000 0.000000 5.786780 -0.625130 5.738526 -5.966462 1.869095 -28.104007 -1.307796 6.040156 33.070229 9.621936 -3.399551 -28.935841 0.000000 0.000000 0.000000 -16.100740 0.697954 -1.388216 -58.692765 -7.490776 -6.501460 0.529534 -29.127441 1.622952 0.000000 0.000000 0.000000 22.038924 -11.870092 -7.735058 61.676728 2.571169 -7.817519 6.349536 32.281142 3.913257 0.000000 0.000000 0.000000 
0.003680 0.955617 0.003119 -0.853302 -6.175973 3.774544 -2.058175 -0.641457 -6.097424 -2.926538 0.371752 9.443809 4.418791 10.180356 4.816534 0.000000 0.000000 0.000000 3.342336 0.386919 -4.140484 -0.257780 0.238323 4.570821 -0.615828 -3.521945 3.655259 0.000000 0.000000 0.000000 5.926478 -0.665771 6.148322 -5.900345 1.855234 -27.940787 -1.462502 6.151451 32.976127 9.587249 -3.368066 -28.968747 0.000000 0.000000 0.000000 -16.451210 0.665167 -1.409337 -58.416318 -7.477353 -6.483445 0.989434 -29.152584 1.504354 0.000000 0.000000 0.000000 22.408739 -11.959690 -7.856059 61.056705 2.504136 -7.800465 6.583937 32.965393 4.075916 0.000000 0.000000 0.000000 
0.003827 0.955516 0.002925 -0.829756 -6.146053 3.577999 -2.121999 -0.667782 -6.316101 -3.204651 0.438769 10.323893 4.695516 10.643031 4.375633 0.000000 0.000000 0.000000 3.427697 0.397756 -4.209654 -0.410811 0.277704 4.940188 -0.668209 -3.415432 3.203891 0.000000 0.000000 0.000000 6.017505 -0.714525 6.675689 -6.040849 1.883460 -28.055286 -1.501860 6.129779 33.152341 9.787448 -3.421496 -29.427438 0.000000 0.000000 0.000000 -16.811997 0.652034 -1.427878 -58.189732 -7.680317 -6.397275 1.470427 -29.100877 1.385452 0.000000 0.000000 0.000000 22.848453 -11.859629 -7.869080 60.778479 2.662454 -7.734242 6.454297 33.201146 4.080053 0.000000 0.000000 0.000000 
0.003827 0.955595 0.002520 -0.842623 -6.080605 3.518589 -2.054634 -0.696637 -6.620309 -3.411143 0.489976 10.910093 4.731896 10.711148 4.363887 0.000000 0.000000 0.000000 3.571182 0.416735 -4.345708 -0.429589 0.301408 5.346061 -0.719162 -3.382200 2.908042 0.000000 0.000000 0.000000 6.127263 -0.752030 7.021952 -5.989066 1.873800 -28.014378 -1.633147 6.182902 33.133254 9.867708 -3.435669 -29.525373 0.000000 0.000000 0.000000 -16.804114 0.794867 -1.526950 -58.197325 -7.694704 -6.391019 1.526895 -29.185392 1.370765 0.000000 0.000000 0.000000 22.999373 -11.997649 -7.958990 60.752609 2.581520 -7.771281 6.788743 33.539889 4.238712 0.000000 0.000000 0.000000 
0.003810 0.956049 0.001846 -0.856200 -6.045038 3.610128 -2.055367 -0.723197 -6.880965 -3.511346 0.515482 11.188525 4.769084 10.758757 4.195213 0.000000 0.000000 0.000000 3.627560 0.485744 -4.865845 -0.433912 0.336262 5.991217 -0.714944 -3.262379 2.689852 0.000000 0.000000 0.000000 6.138504 -0.780337 7.315851 -5.870868 1.849065 -28.206438 -1.595610 6.362626 33.388860 10.187023 -3.489429 -30.162017 0.000000 0.000000 0.000000 -16.670896 0.941589 -1.632267 -58.279741 -7.898100 -6.323914 1.047686 -29.384992 1.495622 0.000000 0.000000 0.000000 23.085567 -12.106245 -7.985928 60.670955 2.670614 -7.745758 7.113857 33.585565 4.361470 0.000000 0.000000 0.000000 
0.003835 0.956634 0.000985 -0.892428 -5.773763 3.799104 -2.008410 -0.743448 -7.112413 -3.572197 0.521245 11.180756 4.696239 10.642009 4.301677 0.000000 0.000000 0.000000 3.739024 0.563606 -5.434770 -0.549054 0.377863 6.464121 -0.813445 -3.456656 2.631429 0.000000 0.000000 0.000000 6.227634 -0.796337 7.351931 -5.858495 1.844402 -28.129935 -1.557198 6.285114 33.394228 10.392571 -3.524262 -30.569023 0.000000 0.000000 0.000000 -16.689278 0.987359 -1.680994 -58.194316 -8.017603 -6.265242 0.717797 -29.776188 1.599334 0.000000 0.000000 0.000000 23.257519 -12.281859 -8.103484 60.647399 2.602503 -7.779835 7.624560 33.686694 4.539800 0.000000 0.000000 0.000000 
0.003895 0.957008 0.000150 -0.910422 -5.556952 3.921986 -2.022463 -0.763919 -7.313419 -3.596537 0.521850 11.276594 4.643786 10.561119 4.389266 0.000000 0.000000 0.000000 3.812466 0.652118 -6.073389 -0.537130 0.412831 7.152324 -0.822930 -3.410303 2.503624 0.000000 0.000000 0.000000 6.240508 -0.809884 7.450110 -5.689441 1.808705 -28.251176 -1.580767 6.391366 33.724296 10.802232 -3.630452 -31.149435 0.000000 0.000000 0.000000 -16.481577 1.085558 -1.756735 -58.277557 -8.259867 -6.194035 -0.052397 -30.167048 1.819099 0.000000 0.000000 0.000000 23.354117 -12.350643 -8.084971 60.695052 2.908473 -7.676035 7.831555 33.751783 4.652653 0.000000 0.000000 0.000000 
0.003978 0.957133 -0.000459 -0.872757 -5.110402 4.104753 -1.948024 -0.764231 -7.365693 -3.602211 0.507892 11.103407 4.386123 10.076983 4.331131 0.000000 0.000000 0.000000 3.633315 0.731423 -6.668875 -0.403755 0.426142 7.841658 -0.830112 -3.388879 2.451434 0.000000 0.000000 0.000000 6.230396 -0.818311 7.482000 -5.678891 1.808483 -28.210768 -1.553230 6.313434 33.730546 11.004707 -3.675919 -31.338316 0.000000 0.000000 0.000000 -16.450105 0.891848 -1.702583 -58.062720 -8.366133 -6.124847 -0.446911 -30.702416 1.940060 0.000000 0.000000 0.000000 23.502813 -12.412649 -8.091942 60.714589 3.109282 -7.576270 7.802145 33.724838 4.663051 0.000000 0.000000 0.000000 
0.003924 0.956873 -0.000838 -0.925771 -4.897664 4.309907 -1.873068 -0.746204 -7.238501 -3.465089 0.467314 10.724895 3.982885 9.262740 4.034722 0.000000 0.000000 0.000000 3.349796 0.835726 -7.493275 -0.162371 0.427231 8.653989 -0.954730 -3.539840 2.166525 0.000000 0.000000 0.000000 6.171756 -0.814488 7.430250 -5.529592 1.777335 -28.256450 -1.438703 6.389647 33.950518 11.167055 -3.673160 -31.701769 0.000000 0.000000 0.000000 -16.580351 0.754082 -1.688164 -57.704695 -8.685943 -5.964269 -1.293410 -30.926398 2.164433 0.000000 0.000000 0.000000 23.634215 -12.246721 -7.943713 60.497559 3.657302 -7.317138 7.682577 33.854074 4.673733 0.000000 0.000000 0.000000 
